<svg xmlns="http://www.w3.org/2000/svg" width="2000" height="460" viewBox="0 0 2000 460" version="1.1">
	<path d="M 206.817 6.452 C 198.906 9.172, 178.424 25.935, 148.110 54.500 C 133.871 67.918, 123.843 76.825, 116.132 82.906 C 104.322 92.217, 95.369 99.537, 90.380 103.961 C 87.564 106.457, 82.480 110.913, 79.083 113.862 C 75.686 116.812, 70.519 122.212, 67.602 125.862 C 62.680 132.021, 54.172 141.512, 38.509 158.312 C 30.336 167.078, 24.337 178.499, 22.099 189.549 C 21.171 194.132, 20.745 198.783, 21.153 199.884 C 21.560 200.985, 21.509 203.225, 21.040 204.862 C 19.941 208.692, 22.637 219.200, 27.274 229.162 C 31.081 237.342, 34.672 241.463, 38.764 242.347 C 40.931 242.815, 42.454 244.660, 46.086 251.219 C 52.428 262.673, 72.902 295.773, 79.800 305.725 C 82.935 310.248, 87.975 318.016, 91 322.987 C 94.025 327.957, 98.416 334.831, 100.758 338.262 C 103.100 341.693, 106.250 346.435, 107.758 348.800 C 109.266 351.164, 114.535 358.589, 119.466 365.300 C 124.398 372.010, 129.881 379.975, 131.651 383 C 134.790 388.363, 137.250 391.863, 152.385 412.500 C 160.395 423.421, 178.264 441.312, 185.254 445.409 C 194.767 450.984, 199.791 451.976, 219.391 452.149 L 237.500 452.309 251.121 447.731 C 271.367 440.925, 296.045 427.940, 313.500 414.908 C 325.050 406.285, 345.199 385.103, 375.440 349.795 C 382.367 341.707, 389.029 334.393, 390.245 333.541 C 395.612 329.782, 403.171 321.350, 405.570 316.446 C 408.266 310.936, 408.307 308.214, 405.794 301.696 C 404.826 299.185, 405.044 298.549, 407.888 295.616 C 409.634 293.814, 411.915 290.098, 412.956 287.357 L 414.850 282.374 412.413 275.139 C 409.604 266.797, 404.704 256.773, 398.189 246.040 C 395.679 241.906, 392.132 234.918, 390.307 230.511 C 388.483 226.105, 386.079 221.375, 384.967 220 C 383.855 218.625, 381.638 215.475, 380.041 213 C 378.444 210.525, 375.869 206.738, 374.319 204.585 C 372.768 202.431, 368.350 196.278, 364.500 190.911 C 360.650 185.543, 354.811 177.405, 351.524 172.826 C 348.238 168.247, 342.613 160.750, 339.024 156.166 C 335.436 151.583, 330.700 145.254, 328.500 142.104 C 324.150 135.874, 314.121 123.357, 307.297 115.642 C 304.934 112.970, 303 109.947, 303 108.925 C 303 107.903, 300.978 104.791, 298.508 102.009 C 296.037 99.227, 293.109 95.174, 292.002 93.003 C 290.894 90.832, 288.711 87.581, 287.151 85.778 C 285.591 83.975, 283.042 80.250, 281.487 77.500 C 279.932 74.750, 276.724 69.738, 274.359 66.363 C 271.978 62.964, 269.780 58.502, 269.433 56.363 C 269.089 54.238, 268.062 50.925, 267.150 49 C 265.729 45.996, 264.939 45.455, 261.573 45.179 C 254.835 44.628, 246.320 48.460, 239.207 55.245 C 235.746 58.547, 232.639 60.972, 232.302 60.635 C 231.965 60.298, 231.404 58.330, 231.056 56.261 C 230.454 52.682, 230.254 52.513, 226.930 52.766 C 223.752 53.008, 222.888 52.420, 217.361 46.246 C 210.367 38.435, 210.331 37.282, 216.910 32.071 C 220.764 29.019, 221 28.529, 221 23.594 C 221 15.327, 218.490 9.291, 214.128 7.065 C 210.941 5.440, 209.994 5.360, 206.817 6.452 M 195.355 53.620 C 191.035 58.361, 185.784 63.873, 183.686 65.870 C 179.326 70.020, 164.821 83.244, 160.440 87.062 C 158.823 88.472, 155.925 91.532, 154 93.864 C 152.075 96.196, 148.102 99.921, 145.172 102.143 C 142.241 104.365, 136.841 108.986, 133.172 112.411 C 129.502 115.837, 125.375 119.404, 124 120.339 C 120.135 122.965, 100.200 141.042, 84.593 156.072 C 76.842 163.537, 69.574 170.287, 68.442 171.072 C 66.257 172.588, 61.361 179.394, 58.648 184.687 C 57.114 187.678, 57.282 191, 58.966 191 C 60.678 191, 69.510 182.215, 74.937 175.112 C 81.179 166.944, 102.102 146, 104.020 146 C 104.658 146, 110.652 140.682, 117.340 134.183 C 124.028 127.683, 130.699 121.461, 132.164 120.356 C 137.209 116.552, 154.521 100.469, 169.144 86 C 184.817 70.494, 194.328 61.748, 202.750 55.098 C 207.967 50.979, 209.097 48.497, 206.800 46.200 C 204.635 44.035, 203.301 44.900, 195.355 53.620 M 257.475 72.208 C 253.560 77.699, 253.054 78.282, 240.732 91.500 C 236.630 95.900, 229.882 104, 225.736 109.500 C 217.957 119.819, 198.795 139.120, 181.558 154 C 176.142 158.675, 166.830 167.675, 160.865 174 C 154.900 180.325, 146.850 188.200, 142.975 191.500 C 139.100 194.800, 130.433 202.471, 123.715 208.548 C 111.229 219.840, 107.499 222.489, 93.500 230.003 C 89.100 232.365, 83.025 235.967, 80 238.008 C 76.975 240.049, 72.551 242.710, 70.169 243.921 C 66.266 245.905, 65.970 246.304, 67.169 247.949 C 71.045 253.266, 74.891 258.021, 78.960 262.526 C 83.270 267.297, 86.237 271.152, 93.818 281.827 C 95.644 284.397, 98.854 288.300, 100.953 290.500 C 103.053 292.700, 105.885 296.306, 107.248 298.513 C 108.611 300.720, 111.250 304.143, 113.113 306.120 C 114.976 308.097, 118.852 312.591, 121.726 316.107 C 132.212 328.935, 134.852 331.931, 138.473 335.110 C 140.503 336.893, 143.972 341.014, 146.182 344.268 C 148.392 347.523, 151.644 351.038, 153.408 352.078 C 156.300 353.784, 160 359.422, 160 362.121 C 160 362.701, 162.508 365.723, 165.574 368.837 C 168.639 371.952, 172.320 376.525, 173.753 379 C 175.186 381.475, 178.415 385.827, 180.929 388.671 C 192.309 401.547, 194.732 404.692, 195.419 407.481 C 196.415 411.521, 203.654 421.476, 209.716 427.141 C 213.440 430.622, 216.474 432.359, 221.855 434.093 C 228.474 436.224, 229.627 436.314, 236.764 435.257 C 247.543 433.660, 263.739 426.708, 275.716 418.537 C 297.346 403.781, 312.325 391.681, 317.515 384.774 C 319.695 381.873, 323.773 377.025, 326.577 374 C 329.382 370.975, 333.121 366.363, 334.886 363.750 C 336.652 361.137, 338.503 359, 339 359 C 340.496 359, 349.721 349.303, 357.449 339.608 C 361.442 334.599, 366.912 328.545, 369.605 326.156 C 372.297 323.766, 378.325 318.221, 383 313.832 C 387.675 309.443, 392.288 305.210, 393.250 304.426 C 395.678 302.448, 395.467 297.723, 392.848 295.405 C 389.775 292.685, 382.996 281.978, 377.711 271.500 C 375.215 266.550, 370.884 258.716, 368.086 254.090 C 365.289 249.465, 363 245.237, 363 244.695 C 363 242.832, 347.958 216.495, 343.481 210.520 C 341.016 207.230, 339 204.003, 339 203.348 C 339 202.693, 336.930 199.084, 334.401 195.328 C 331.872 191.573, 327.644 184.225, 325.006 179 C 320.715 170.499, 311.692 156.687, 303.122 145.500 C 301.437 143.300, 298.421 138.350, 296.420 134.500 C 294.419 130.650, 291.761 126.140, 290.513 124.477 C 287.226 120.097, 277.681 100.876, 269.933 83.036 C 266.239 74.531, 262.774 67.425, 262.232 67.244 C 261.691 67.064, 259.550 69.297, 257.475 72.208 M 551.500 82.040 C 517.233 87.378, 497.073 108.099, 497.015 138.040 C 496.988 151.638, 500.862 161.662, 509.863 171.284 C 519.244 181.313, 526.673 185.434, 558 197.984 C 583.747 208.298, 590.896 212.036, 598.522 219.169 C 608.946 228.921, 612.885 239.689, 610.970 253.205 C 608.583 270.063, 599.964 281.764, 584.500 289.137 C 562.622 299.570, 529.849 295.426, 514.648 280.305 C 508.619 274.308, 505.987 269.271, 505.275 262.372 C 504.904 258.781, 504.269 257, 503.360 257 C 502.262 257, 502 260.561, 502 275.455 L 502 293.909 505.750 294.572 C 507.813 294.937, 517.375 297.502, 527 300.273 L 544.500 305.310 560 305.361 C 572.815 305.403, 577.059 305.024, 584.500 303.175 C 613.663 295.929, 631.385 276.897, 633.578 250.469 C 635.665 225.310, 623.992 205.184, 600 192.578 C 596.425 190.699, 583.185 185.071, 570.577 180.070 C 543.249 169.231, 536.466 165.612, 528.421 157.574 C 521.352 150.510, 519 144.968, 519 135.371 C 519 118.959, 525.114 106.760, 537.283 98.895 C 545.793 93.396, 555.114 91.530, 569.943 92.360 C 597.894 93.925, 609.715 100.981, 612.476 117.750 C 612.915 120.413, 613.703 122, 614.588 122 C 615.749 122, 616 118.974, 616 105 L 616 88 612.473 88 C 610.534 88, 602.152 86.636, 593.847 84.969 C 577.365 81.661, 561.136 80.538, 551.500 82.040 M 198.913 88.753 C 197.586 89.671, 188.625 97.604, 179 106.381 C 161.998 121.886, 151.493 132.554, 145.535 140.365 C 143.937 142.460, 139.226 146.923, 135.065 150.283 C 130.904 153.643, 121.340 162.266, 113.811 169.446 C 106.283 176.626, 94.703 187.618, 88.078 193.872 C 81.453 200.127, 76.277 205.640, 76.576 206.122 C 77.505 207.625, 81.620 207.086, 84.115 205.135 C 85.427 204.109, 88.750 202.116, 91.500 200.706 C 95.005 198.908, 103.116 191.469, 118.632 175.821 C 130.805 163.544, 141.155 152.751, 141.632 151.836 C 142.110 150.921, 156.123 136.216, 172.773 119.159 C 199.609 91.668, 206.814 83.287, 198.913 88.753 M 679.352 113.049 C 675.246 114.295, 670.273 120.029, 669.438 124.479 C 667.348 135.620, 675.209 144.026, 686.527 142.750 C 700.790 141.142, 704.887 123.496, 693 114.870 C 689.910 112.627, 683.540 111.778, 679.352 113.049 M 258.819 128.536 C 257.344 129.337, 255.902 130.781, 255.615 131.746 C 254.073 136.929, 251.998 147.535, 251.983 150.312 C 251.957 155.216, 248.533 170.867, 247.193 172.207 C 245.373 174.027, 244.224 172.231, 242.236 164.458 C 240.117 156.169, 239.554 155.161, 236.355 153.945 C 233.145 152.724, 227.985 154.848, 225.704 158.328 C 224.767 159.759, 223.997 162.633, 223.994 164.715 C 223.991 166.797, 223.487 170.300, 222.874 172.500 C 222.261 174.700, 221.476 179.650, 221.130 183.500 C 220.587 189.528, 220.232 190.500, 218.572 190.500 C 217.290 190.500, 216.384 189.530, 215.869 187.604 C 214.575 182.763, 210.199 179, 205.864 179 C 200.281 179, 196.696 183.261, 195.065 191.836 C 192.635 204.605, 192.715 204.494, 188.362 201.070 C 185.727 198.997, 179.576 199.168, 177.383 201.375 C 175.201 203.571, 173 215.887, 173 225.896 C 173 231.389, 172.579 236.142, 172.064 236.460 C 171.549 236.779, 170.158 233.768, 168.972 229.769 C 165.496 218.052, 164.010 215.549, 160.309 215.191 C 155.920 214.766, 153.385 217.564, 152.531 223.775 C 151.844 228.772, 149.886 235.447, 148.785 236.548 C 148.463 236.870, 147.668 235.525, 147.020 233.559 C 145.372 228.568, 142.766 227.371, 138.699 229.737 C 133.709 232.640, 131.873 237.571, 128.920 256 C 126.798 269.240, 126.654 278.805, 128.502 283.644 C 130.232 288.174, 132.666 289.312, 134.892 286.631 C 135.517 285.877, 136.982 280.502, 138.147 274.686 C 141.221 259.350, 143.052 259.459, 146.513 275.187 C 148.256 283.109, 149.580 285.129, 154.173 286.876 C 159.263 288.811, 160.369 284.753, 161.903 258.500 C 162.353 250.800, 162.784 244.361, 162.861 244.191 C 163.426 242.938, 165.178 246.025, 166.986 251.457 C 169.857 260.085, 172.247 263, 176.450 263 C 180.798 263, 182.025 261.308, 183.142 253.769 C 183.653 250.321, 184.415 245.153, 184.834 242.284 C 185.254 239.416, 185.843 236.824, 186.142 236.524 C 186.442 236.225, 187.516 237.817, 188.528 240.062 C 190.640 244.747, 194.293 248, 197.439 248 C 198.632 248, 201.046 246.516, 202.804 244.702 C 205.352 242.073, 206 240.566, 206 237.267 C 206 234.992, 206.433 231.992, 206.961 230.602 C 207.490 229.211, 208.229 224.008, 208.605 219.040 C 209.485 207.376, 210.530 206.450, 216.052 212.440 C 220.750 217.538, 223.321 218.108, 227.342 214.946 C 230.404 212.537, 234 202.044, 234 195.517 C 234 189.173, 235.836 188.178, 241.599 191.400 C 254.057 198.362, 260.743 191.104, 265.455 165.500 C 266.366 160.550, 267.536 155.118, 268.055 153.429 C 268.575 151.740, 269 148.943, 269 147.213 C 269 145.483, 269.743 142.510, 270.651 140.606 C 272.056 137.659, 272.110 136.681, 271.016 134.038 C 269.567 130.539, 265.548 126.980, 263.115 127.040 C 262.227 127.062, 260.293 127.735, 258.819 128.536 M 128.464 137.355 C 122.945 142.529, 115.745 148.610, 112.465 150.868 C 100.408 159.170, 60 197.049, 60 200.049 C 60 200.952, 60.837 202.448, 61.860 203.373 C 64.824 206.056, 68.202 203.984, 75.034 195.292 C 78.403 191.006, 83.711 185.554, 86.829 183.176 C 89.948 180.798, 99.250 172.210, 107.500 164.091 C 115.750 155.973, 125.425 146.963, 129 144.070 C 136.083 138.338, 142.261 131.283, 141.693 129.577 C 140.787 126.855, 137.780 128.624, 128.464 137.355 M 927.250 165.747 C 918.190 168.769, 911 171.702, 911 172.377 C 911 173.042, 912.426 174.017, 914.169 174.543 C 915.911 175.069, 918.274 176.770, 919.419 178.323 C 921.467 181.102, 921.500 182.004, 921.500 235.896 L 921.500 290.646 918.658 294.941 C 917.095 297.303, 914.957 299.460, 913.908 299.734 C 912.859 300.009, 912 301.081, 912 302.117 C 912 303.901, 913.100 304, 933 304 C 953.333 304, 954 303.937, 954 302 C 954 300.900, 953.348 300, 952.551 300 C 950.519 300, 946.415 294.262, 945.042 289.500 C 944.226 286.673, 943.978 272.598, 944.194 241.500 L 944.500 197.500 947.170 191.804 C 950.424 184.862, 956.862 178.227, 963.526 174.948 C 967.686 172.901, 969.973 172.500, 977.500 172.500 C 985.474 172.500, 987.161 172.835, 992.294 175.436 C 999.351 179.012, 1005.290 185.253, 1008.840 192.825 L 1011.500 198.500 1011.500 244 L 1011.500 289.500 1009.011 293.848 C 1007.642 296.239, 1005.250 298.853, 1003.697 299.657 C 997.629 302.794, 1000.865 303.490, 1022.833 303.770 C 1043.069 304.028, 1044 303.956, 1044 302.137 C 1044 301.090, 1043.141 300.009, 1042.092 299.734 C 1041.043 299.460, 1038.905 297.303, 1037.342 294.941 L 1034.500 290.646 1034.500 245.521 L 1034.500 200.396 1038.259 192.790 C 1042.995 183.207, 1050.724 175.753, 1058.238 173.522 C 1074.001 168.841, 1089.784 175.678, 1096.973 190.303 C 1101.478 199.467, 1102.182 208.251, 1101.815 250.675 C 1101.530 283.525, 1101.302 287.930, 1099.700 291.486 C 1097.625 296.092, 1094.241 300, 1092.326 300 C 1091.597 300, 1091 300.909, 1091 302.020 C 1091 303.991, 1091.508 304.033, 1112.167 303.770 C 1127.883 303.570, 1133.441 303.182, 1133.746 302.264 C 1133.972 301.585, 1132.994 300.499, 1131.572 299.851 C 1129.985 299.128, 1127.929 296.517, 1126.244 293.087 L 1123.500 287.500 1122.909 244 C 1122.270 196.945, 1122.192 196.243, 1116.287 184.584 C 1112.743 177.585, 1104.230 169.471, 1096.769 165.979 C 1088.931 162.311, 1082.142 160.997, 1071.114 161.012 C 1052.683 161.037, 1040.941 167.369, 1030.953 182.670 L 1026.228 189.908 1022.669 184.142 C 1017.680 176.060, 1010.265 169.506, 1001.230 165.191 C 993.546 161.522, 993.423 161.500, 980.500 161.500 C 968.349 161.500, 967.108 161.683, 961.500 164.305 C 958.200 165.847, 952.931 169.125, 949.791 171.589 L 944.082 176.068 943.791 168.198 L 943.500 160.327 927.250 165.747 M 682 165.853 C 666.757 170.802, 664.757 172.348, 670.988 174.369 C 677.625 176.521, 677.500 175.348, 677.500 235.500 L 677.500 289.500 674.984 293.994 C 673.600 296.466, 671.237 299.078, 669.734 299.799 C 668.230 300.520, 667 301.535, 667 302.055 C 667 302.619, 675.661 303, 688.500 303 C 706.944 303, 710 302.787, 710 301.500 C 710 300.675, 709.403 300, 708.674 300 C 706.760 300, 703.376 296.094, 701.298 291.486 C 699.639 287.808, 699.477 282.609, 699.208 224.250 C 698.983 175.599, 698.637 161.017, 697.708 161.072 C 697.044 161.112, 689.975 163.263, 682 165.853 M 1768.750 166.162 C 1760.635 168.915, 1754 171.711, 1754 172.377 C 1754 173.042, 1755.463 174.017, 1757.250 174.543 C 1759.668 175.255, 1761.076 176.643, 1762.750 179.962 C 1764.996 184.416, 1765 184.518, 1765 235.563 C 1765 271.134, 1764.654 287.736, 1763.862 290.101 C 1762.376 294.539, 1758.287 300, 1756.449 300 C 1755.652 300, 1755 300.675, 1755 301.500 C 1755 302.786, 1758 303, 1776 303 C 1794 303, 1797 302.786, 1797 301.500 C 1797 300.675, 1796.365 300, 1795.589 300 C 1793.603 300, 1789.421 294.754, 1787.836 290.275 C 1786.800 287.347, 1786.500 276.742, 1786.500 243 C 1786.500 199.905, 1786.521 199.447, 1788.804 193.798 C 1791.717 186.589, 1798.265 179.262, 1805.139 175.521 C 1812.568 171.477, 1823.912 170.830, 1832.247 173.974 C 1840.219 176.981, 1847.911 184.230, 1851.595 192.209 L 1854.500 198.500 1854.790 242.909 L 1855.079 287.317 1852.458 292.675 C 1850.819 296.025, 1848.743 298.599, 1846.918 299.542 C 1845.313 300.372, 1844 301.490, 1844 302.026 C 1844 302.628, 1852.211 303, 1865.500 303 C 1886.620 303, 1890.218 302.426, 1884.750 299.930 C 1881.928 298.642, 1878.507 293.490, 1877.093 288.398 C 1876.402 285.909, 1876.009 270.352, 1876.006 245.355 C 1876 209.124, 1876.148 205.732, 1877.985 199.783 C 1881.740 187.627, 1889.247 178.513, 1899.244 173.976 C 1904.610 171.540, 1915.770 171.361, 1922.357 173.606 C 1928.701 175.768, 1937.258 183.738, 1940.428 190.439 C 1944.584 199.224, 1945.132 206.576, 1944.804 249.102 C 1944.505 287.797, 1944.460 288.575, 1942.242 292.726 C 1941 295.050, 1938.637 297.948, 1936.992 299.164 C 1935.346 300.381, 1934 301.741, 1934 302.188 C 1934 302.635, 1943.450 303, 1955 303 C 1966.550 303, 1976 302.635, 1976 302.188 C 1976 301.741, 1974.719 300.429, 1973.154 299.272 C 1971.588 298.114, 1969.451 295.442, 1968.404 293.334 C 1966.653 289.807, 1966.452 286.051, 1965.897 246.500 C 1965.238 199.562, 1965.043 197.844, 1958.961 185.341 C 1955.453 178.132, 1946.695 169.487, 1939.445 166.079 C 1933.121 163.106, 1923.090 161.039, 1914.886 161.017 C 1896.354 160.969, 1884.269 167.339, 1874.129 182.499 L 1869.163 189.924 1864.288 182.712 C 1855.394 169.554, 1842.831 162.268, 1827.292 161.257 C 1813.016 160.329, 1803.803 163.095, 1792.834 171.605 C 1789.718 174.022, 1786.906 176, 1786.584 176 C 1786.263 176, 1786 172.625, 1786 168.500 C 1786 163.125, 1785.646 161.022, 1784.750 161.079 C 1784.063 161.122, 1776.862 163.410, 1768.750 166.162 M 794.500 163.482 C 770.755 168.718, 752.966 184.575, 747.363 205.500 C 744.258 217.095, 746.516 232.075, 752.729 241.107 L 755.762 245.515 751.457 250.270 C 745.665 256.668, 743.626 263.030, 744.211 272.873 C 744.948 285.270, 752.378 297.621, 762.761 303.706 L 767.324 306.380 763.919 308.940 C 756.806 314.289, 751.241 320.137, 748.422 325.226 C 745.831 329.902, 745.501 331.464, 745.512 339 C 745.526 349.170, 747.494 353.689, 755.162 361.157 C 774.476 379.971, 824.056 383.580, 854.256 368.371 C 863.210 363.862, 872.150 355.430, 875.752 348.096 C 878.099 343.316, 878.498 341.261, 878.489 334 C 878.471 320.504, 873.991 313.537, 861.207 307.121 C 852.593 302.799, 847.143 301.522, 813.991 296.063 C 797.221 293.301, 780.665 290.083, 777.201 288.912 C 763.842 284.397, 757.500 277.426, 757.645 267.417 C 757.721 262.167, 760.157 256.538, 762.790 255.527 C 763.557 255.233, 766.731 256.560, 769.843 258.476 C 776.723 262.714, 787.396 266.442, 796.847 267.908 C 823.776 272.086, 851.381 261.295, 865.220 241.180 C 873.285 229.458, 874.756 214.051, 869.224 199.250 L 866.140 191 873.570 191 L 881 191 881 185 L 881 179 869.384 179 L 857.769 179 851.134 174.605 C 834.430 163.540, 813.172 159.365, 794.500 163.482 M 1203.454 162.965 C 1199.758 163.751, 1187.748 168.511, 1175.750 173.943 L 1171 176.094 1171 188.047 C 1171 202.016, 1172.023 203.184, 1176.871 194.750 C 1183.386 183.416, 1195.057 174.947, 1207.082 172.829 C 1214.743 171.479, 1226.224 173.133, 1233.738 176.669 C 1245.045 181.990, 1254.225 195.535, 1254.405 207.163 L 1254.500 213.253 1242.215 216.624 C 1206.862 226.325, 1187.038 235.023, 1176.459 245.477 C 1167.520 254.309, 1165.500 259.108, 1165.501 271.500 C 1165.501 280.410, 1165.792 282.045, 1168.164 286.500 C 1173.496 296.510, 1183.086 302.864, 1196 304.940 C 1216.560 308.245, 1235.747 303.526, 1250.036 291.649 L 1255.500 287.108 1255.789 295.579 L 1256.079 304.050 1271.707 303.775 C 1283.077 303.575, 1287.448 303.161, 1287.749 302.256 C 1287.976 301.572, 1287.113 300.611, 1285.831 300.121 C 1284.549 299.631, 1282.670 298.308, 1281.655 297.181 C 1277.397 292.453, 1277.091 289.314, 1277.013 249.500 C 1276.937 210.806, 1276.297 200.617, 1273.354 191.204 C 1269.617 179.257, 1259.007 169.341, 1245.193 164.887 C 1239.778 163.141, 1235.541 162.669, 1223 162.417 C 1214.475 162.245, 1205.679 162.492, 1203.454 162.965 M 1351.500 163.428 C 1327.386 168.944, 1316.084 181.439, 1317.188 201.362 C 1317.672 210.090, 1319.880 214.978, 1326.085 221.057 C 1332.652 227.490, 1341.629 231.863, 1363.816 239.438 C 1385.129 246.715, 1391.406 249.537, 1397.774 254.705 C 1409.108 263.903, 1408.625 278.713, 1396.727 286.814 C 1388.914 292.133, 1383.652 293.500, 1371 293.500 C 1360.814 293.500, 1358.783 293.198, 1353.221 290.855 C 1339.287 284.984, 1327.423 275.669, 1323.108 267.212 C 1321.926 264.895, 1320.293 263, 1319.480 263 C 1318.253 263, 1318 265.127, 1318 275.461 L 1318 287.923 1322.250 289.056 C 1324.588 289.679, 1328.975 291.671, 1332 293.483 C 1348.365 303.285, 1357.057 305.962, 1372.590 305.985 C 1391.457 306.013, 1407.150 299.940, 1417.897 288.451 C 1424.907 280.958, 1427.454 274.658, 1427.417 264.910 C 1427.383 256.100, 1423.907 248.974, 1416.154 241.822 C 1408.720 234.964, 1399.728 230.594, 1377.500 223.034 C 1356.355 215.842, 1346.120 211.040, 1342.043 206.397 C 1333.516 196.684, 1336.882 184.288, 1350 177.100 C 1356.007 173.808, 1357.263 173.510, 1366.560 173.163 C 1383.505 172.530, 1397.873 177.703, 1407.046 187.740 C 1409.771 190.722, 1412 193.575, 1412 194.081 C 1412 194.586, 1412.675 195, 1413.500 195 C 1414.745 195, 1415 193.082, 1415 183.737 L 1415 172.474 1408.750 170.371 C 1405.313 169.215, 1399.125 166.997, 1395 165.442 C 1388.177 162.871, 1386.146 162.590, 1372.500 162.336 C 1362.423 162.148, 1355.531 162.506, 1351.500 163.428 M 1510.500 163.656 C 1485.094 169.074, 1464.890 187.099, 1456.982 211.402 C 1452.673 224.642, 1452.842 243.993, 1457.380 257.041 C 1461.019 267.505, 1465.518 274.470, 1474.522 283.575 C 1481.113 290.240, 1484.234 292.519, 1492.022 296.353 C 1506.093 303.281, 1514.709 305.277, 1531 305.381 C 1546.814 305.482, 1551.202 304.426, 1566.157 296.921 C 1571.551 294.214, 1576.647 292, 1577.482 292 C 1578.762 292, 1579 289.958, 1579 279 C 1579 268.687, 1578.718 266, 1577.636 266 C 1576.886 266, 1575.513 267.988, 1574.585 270.417 C 1571.209 279.258, 1561.907 287.467, 1550.628 291.561 C 1529.097 299.376, 1504.919 292.250, 1490.441 273.821 C 1470.048 247.864, 1470.179 208.648, 1490.728 188.117 C 1505.914 172.944, 1530.467 168.633, 1550.753 177.577 C 1557.341 180.481, 1566.199 188.764, 1568.930 194.574 C 1570.074 197.008, 1571.683 199, 1572.505 199 C 1573.751 199, 1574 196.934, 1574 186.579 L 1574 174.159 1570.941 173.487 C 1569.259 173.118, 1564.161 171.071, 1559.611 168.939 C 1555.062 166.807, 1548.694 164.374, 1545.460 163.532 C 1537.971 161.581, 1519.929 161.645, 1510.500 163.656 M 1636.500 163.431 C 1633.200 164.203, 1624.875 167.313, 1618 170.343 L 1605.500 175.853 1605.219 187.926 C 1604.894 201.919, 1605.776 203.072, 1610.443 194.749 C 1619.767 178.119, 1637.166 169.741, 1655.701 172.957 C 1664.914 174.556, 1669.984 176.970, 1676.051 182.645 C 1684.115 190.188, 1688.956 200.426, 1688.988 210.009 L 1689 213.518 1677.750 216.377 C 1658.353 221.308, 1639.445 227.859, 1627.761 233.698 C 1613.654 240.747, 1604.568 249.146, 1601.159 258.288 C 1598.487 265.451, 1598.270 276.502, 1600.664 283.527 C 1603.054 290.542, 1611.742 299.106, 1619.273 301.870 C 1641.354 309.975, 1667.716 305.565, 1684.266 290.997 L 1689 286.830 1689 294.915 L 1689 303 1705 303 C 1717.338 303, 1721 302.707, 1721 301.719 C 1721 301.015, 1719.722 299.956, 1718.161 299.367 C 1716.250 298.646, 1714.532 296.692, 1712.911 293.397 C 1710.500 288.500, 1710.500 288.496, 1709.936 243.500 C 1709.443 204.192, 1709.148 197.804, 1707.600 193 C 1702.937 178.521, 1693.336 169.584, 1677 164.517 C 1669.412 162.164, 1644.751 161.503, 1636.500 163.431 M 795.024 174.603 C 775.553 179.836, 764.013 197.911, 766.942 218.591 C 769.492 236.603, 783.834 251.484, 803.460 256.482 C 814.591 259.317, 824.883 257.755, 834.247 251.809 C 846.250 244.188, 852.867 228.170, 850.869 211.573 C 847.842 186.433, 819.882 167.923, 795.024 174.603 M 291.340 205.811 C 288.678 207.908, 283.166 211.958, 279.091 214.813 C 257.713 229.788, 214.677 272.674, 179.077 314.478 C 174.699 319.619, 173.407 321.786, 174.172 322.707 C 174.872 323.550, 175.775 323.656, 176.942 323.031 C 177.895 322.521, 186.735 314.242, 196.587 304.634 C 206.439 295.025, 216.396 285.664, 218.713 283.832 C 221.030 281.999, 224.339 278.578, 226.066 276.228 C 227.792 273.879, 230.235 271.404, 231.494 270.728 C 232.753 270.053, 240.574 262.975, 248.874 255 C 267.448 237.155, 276.420 229.035, 285.530 221.828 C 295.666 213.808, 301.352 205.752, 298.727 203.127 C 297.076 201.476, 296.646 201.632, 291.340 205.811 M 301.275 223.809 C 300.601 224.237, 291.159 233.118, 280.293 243.544 C 269.427 253.970, 258.110 264.750, 255.144 267.500 C 236.751 284.555, 222.963 300.039, 208.838 319.500 C 204.447 325.550, 200.136 331.055, 199.257 331.734 C 194.866 335.129, 192.060 344, 195.378 344 C 199.528 344, 205.173 339.436, 222 322.475 C 232.175 312.219, 252.200 292.902, 266.500 279.548 C 302.711 245.735, 310 237.383, 310 229.705 C 310 224.555, 305.203 221.313, 301.275 223.809 M 1679.500 226.673 C 1655.376 233.026, 1638.941 240.597, 1629.011 249.931 C 1622.090 256.436, 1620 260.778, 1620 268.652 C 1620 283.451, 1632.053 293.135, 1650.458 293.122 C 1663.982 293.112, 1672.333 289.327, 1683.268 278.249 L 1689.036 272.405 1688.768 248.354 L 1688.500 224.302 1679.500 226.673 M 1238.500 228.907 C 1215.506 235.651, 1202.816 242.214, 1193.279 252.298 C 1183.083 263.080, 1183.494 276.103, 1194.334 285.645 C 1200.849 291.380, 1207.683 293.340, 1219.379 292.828 C 1231.407 292.302, 1237.477 289.431, 1248.180 279.206 L 1256 271.735 1256 248.367 L 1256 225 1253.750 225.047 C 1252.513 225.073, 1245.650 226.810, 1238.500 228.907 M 284.687 291.984 C 282.099 293.625, 278.523 297.064, 276.741 299.627 C 274.958 302.190, 271.787 306.359, 269.692 308.893 C 264.640 315.006, 259.628 324.073, 257.076 331.718 C 253.955 341.069, 254.119 356.343, 257.411 362.783 C 261.206 370.209, 265.408 373.527, 274.241 376.072 C 281.947 378.293, 282.016 378.295, 289.741 376.482 C 296.851 374.814, 298.016 374.168, 303.668 368.751 C 314.700 358.179, 320.579 343.131, 319.637 327.876 C 318.274 305.807, 316.612 300.584, 308.607 293.205 C 304.113 289.063, 303.935 289, 296.718 289 C 290.304 289, 288.805 289.372, 284.687 291.984 M 776.738 314.065 C 771.327 318.525, 766.667 328.646, 766.667 335.937 C 766.667 348.962, 778.724 359.970, 797.500 364.089 C 806.747 366.117, 827.837 365.621, 837.154 363.156 C 850.925 359.512, 860.083 353.577, 863.449 346.113 C 868.242 335.484, 859.468 327.490, 836.500 321.558 C 833.200 320.706, 820.150 318.201, 807.500 315.992 C 794.850 313.784, 783.574 311.770, 782.442 311.517 C 781.139 311.227, 779.048 312.161, 776.738 314.065 M 287.357 312.992 C 283.804 314.425, 282 318.013, 282 323.646 C 282 327.782, 282.530 329.476, 284.589 331.923 C 286.812 334.565, 287.851 335, 291.934 335 C 297.062 335, 298.505 333.977, 301.379 328.300 C 303.520 324.072, 303.460 318.713, 301.250 316.776 C 298.658 314.503, 293.354 311.991, 291.300 312.063 C 290.310 312.098, 288.536 312.516, 287.357 312.992 M 267.607 335.582 C 266.833 337.599, 266.828 342.891, 267.597 346.736 C 268.390 350.701, 273.252 353.005, 280.784 352.985 C 290.030 352.961, 294.787 349.272, 287.519 347.762 C 285.548 347.353, 282.576 346.315, 280.915 345.456 C 277.685 343.786, 270 336.339, 270 334.879 C 270 333.393, 268.250 333.906, 267.607 335.582" stroke="none" fill="#000000" fill-rule="evenodd"/>
</svg>