<?xml version="1.0" encoding="utf-8"?>
<svg xmlns="http://www.w3.org/2000/svg" width="2000" height="460" viewBox="0 0 2000 460" version="1.1">
  <path d="M 988.994 7.436 C 981.083 10.156 960.601 26.919 930.287 55.484 C 916.048 68.902 906.02 77.809 898.309 83.89 C 886.499 93.201 877.546 100.521 872.557 104.945 C 869.741 107.441 864.657 111.897 861.26 114.846 C 857.863 117.796 852.696 123.196 849.779 126.846 C 844.857 133.005 836.349 142.496 820.686 159.296 C 812.513 168.062 806.514 179.483 804.276 190.533 C 803.348 195.116 802.922 199.767 803.33 200.868 C 803.737 201.969 803.686 204.209 803.217 205.846 C 802.118 209.676 804.814 220.184 809.451 230.146 C 813.258 238.326 816.849 242.447 820.941 243.331 C 823.108 243.799 824.631 245.644 828.263 252.203 C 834.605 263.657 855.079 296.757 861.977 306.709 C 865.112 311.232 870.152 319 873.177 323.971 C 876.202 328.941 880.593 335.815 882.935 339.246 C 885.277 342.677 888.427 347.419 889.935 349.784 C 891.443 352.148 896.712 359.573 901.643 366.284 C 906.575 372.994 912.058 380.959 913.828 383.984 C 916.967 389.347 919.427 392.847 934.562 413.484 C 942.572 424.405 960.441 442.296 967.431 446.393 C 976.944 451.968 981.968 452.96 1001.57 453.133 L 1019.68 453.293 L 1033.3 448.715 C 1053.54 441.909 1078.22 428.924 1095.68 415.892 C 1107.23 407.269 1127.38 386.087 1157.62 350.779 C 1164.54 342.691 1171.21 335.377 1172.42 334.525 C 1177.79 330.766 1185.35 322.334 1187.75 317.43 C 1190.44 311.92 1190.48 309.198 1187.97 302.68 C 1187 300.169 1187.22 299.533 1190.07 296.6 C 1191.81 294.798 1194.09 291.082 1195.13 288.341 L 1197.03 283.358 L 1194.59 276.123 C 1191.78 267.781 1186.88 257.757 1180.37 247.024 C 1177.86 242.89 1174.31 235.902 1172.48 231.495 C 1170.66 227.089 1168.26 222.359 1167.14 220.984 C 1166.03 219.609 1163.82 216.459 1162.22 213.984 C 1160.62 211.509 1158.05 207.722 1156.5 205.569 C 1154.94 203.415 1150.53 197.262 1146.68 191.895 C 1142.83 186.527 1136.99 178.389 1133.7 173.81 C 1130.41 169.231 1124.79 161.734 1121.2 157.15 C 1117.61 152.567 1112.88 146.238 1110.68 143.088 C 1106.33 136.858 1096.3 124.341 1089.47 116.626 C 1087.11 113.954 1085.18 110.931 1085.18 109.909 C 1085.18 108.887 1083.15 105.775 1080.68 102.993 C 1078.21 100.211 1075.29 96.158 1074.18 93.987 C 1073.07 91.816 1070.89 88.565 1069.33 86.762 C 1067.77 84.959 1065.22 81.234 1063.66 78.484 C 1062.11 75.734 1058.9 70.722 1056.54 67.347 C 1054.15 63.948 1051.96 59.486 1051.61 57.347 C 1051.27 55.222 1050.24 51.909 1049.33 49.984 C 1047.91 46.98 1047.12 46.439 1043.75 46.163 C 1037.01 45.612 1028.5 49.444 1021.38 56.229 C 1017.92 59.531 1014.82 61.956 1014.48 61.619 C 1014.14 61.282 1013.58 59.314 1013.23 57.245 C 1012.63 53.666 1012.43 53.497 1009.11 53.75 C 1005.93 53.992 1005.07 53.404 999.538 47.23 C 992.544 39.419 992.508 38.266 999.087 33.055 C 1002.94 30.003 1003.18 29.513 1003.18 24.578 C 1003.18 16.311 1000.67 10.275 996.305 8.049 C 993.118 6.424 992.171 6.344 988.994 7.436 M 977.532 54.604 C 973.212 59.345 967.961 64.857 965.863 66.854 C 961.503 71.004 946.998 84.228 942.617 88.046 C 941 89.456 938.102 92.516 936.177 94.848 C 934.252 97.18 930.279 100.905 927.349 103.127 C 924.418 105.349 919.018 109.97 915.349 113.395 C 911.679 116.821 907.552 120.388 906.177 121.323 C 902.312 123.949 882.377 142.026 866.77 157.056 C 859.019 164.521 851.751 171.271 850.619 172.056 C 848.434 173.572 843.538 180.378 840.825 185.671 C 839.291 188.662 839.459 191.984 841.143 191.984 C 842.855 191.984 851.687 183.199 857.114 176.096 C 863.356 167.928 884.279 146.984 886.197 146.984 C 886.835 146.984 892.829 141.666 899.517 135.167 C 906.205 128.667 912.876 122.445 914.341 121.34 C 919.386 117.536 936.698 101.453 951.321 86.984 C 966.994 71.478 976.505 62.732 984.927 56.082 C 990.144 51.963 991.274 49.481 988.977 47.184 C 986.812 45.019 985.478 45.884 977.532 54.604 M 1039.65 73.192 C 1035.74 78.683 1035.23 79.266 1022.91 92.484 C 1018.81 96.884 1012.06 104.984 1007.91 110.484 C 1000.13 120.803 980.972 140.104 963.735 154.984 C 958.319 159.659 949.007 168.659 943.042 174.984 C 937.077 181.309 929.027 189.184 925.152 192.484 C 921.277 195.784 912.61 203.455 905.892 209.532 C 893.406 220.824 889.676 223.473 875.677 230.987 C 871.277 233.349 865.202 236.951 862.177 238.992 C 859.152 241.033 854.728 243.694 852.346 244.905 C 848.443 246.889 848.147 247.288 849.346 248.933 C 853.222 254.25 857.068 259.005 861.137 263.51 C 865.447 268.281 868.414 272.136 875.995 282.811 C 877.821 285.381 881.031 289.284 883.13 291.484 C 885.23 293.684 888.062 297.29 889.425 299.497 C 890.788 301.704 893.427 305.127 895.29 307.104 C 897.153 309.081 901.029 313.575 903.903 317.091 C 914.389 329.919 917.029 332.915 920.65 336.094 C 922.68 337.877 926.149 341.998 928.359 345.252 C 930.569 348.507 933.821 352.022 935.585 353.062 C 938.477 354.768 942.177 360.406 942.177 363.105 C 942.177 363.685 944.685 366.707 947.751 369.821 C 950.816 372.936 954.497 377.509 955.93 379.984 C 957.363 382.459 960.592 386.811 963.106 389.655 C 974.486 402.531 976.909 405.676 977.596 408.465 C 978.592 412.505 985.831 422.46 991.893 428.125 C 995.617 431.606 998.651 433.343 1004.03 435.077 C 1010.65 437.208 1011.8 437.298 1018.94 436.241 C 1029.72 434.644 1045.92 427.692 1057.89 419.521 C 1079.52 404.765 1094.5 392.665 1099.69 385.758 C 1101.87 382.857 1105.95 378.009 1108.75 374.984 C 1111.56 371.959 1115.3 367.347 1117.06 364.734 C 1118.83 362.121 1120.68 359.984 1121.18 359.984 C 1122.67 359.984 1131.9 350.287 1139.63 340.592 C 1143.62 335.583 1149.09 329.529 1151.78 327.14 C 1154.47 324.75 1160.5 319.205 1165.18 314.816 C 1169.85 310.427 1174.46 306.194 1175.43 305.41 C 1177.86 303.432 1177.64 298.707 1175.03 296.389 C 1171.95 293.669 1165.17 282.962 1159.89 272.484 C 1157.39 267.534 1153.06 259.7 1150.26 255.074 C 1147.47 250.449 1145.18 246.221 1145.18 245.679 C 1145.18 243.816 1130.13 217.479 1125.66 211.504 C 1123.19 208.214 1121.18 204.987 1121.18 204.332 C 1121.18 203.677 1119.11 200.068 1116.58 196.312 C 1114.05 192.557 1109.82 185.209 1107.18 179.984 C 1102.89 171.483 1093.87 157.671 1085.3 146.484 C 1083.61 144.284 1080.6 139.334 1078.6 135.484 C 1076.6 131.634 1073.94 127.124 1072.69 125.461 C 1069.4 121.081 1059.86 101.86 1052.11 84.02 C 1048.42 75.515 1044.95 68.409 1044.41 68.228 C 1043.87 68.048 1041.73 70.281 1039.65 73.192 M 981.09 89.737 C 979.763 90.655 970.802 98.588 961.177 107.365 C 944.175 122.87 933.67 133.538 927.712 141.349 C 926.114 143.444 921.403 147.907 917.242 151.267 C 913.081 154.627 903.517 163.25 895.988 170.43 C 888.46 177.61 876.88 188.602 870.255 194.856 C 863.63 201.111 858.454 206.624 858.753 207.106 C 859.682 208.609 863.797 208.07 866.292 206.119 C 867.604 205.093 870.927 203.1 873.677 201.69 C 877.182 199.892 885.293 192.453 900.809 176.805 C 912.982 164.528 923.332 153.735 923.809 152.82 C 924.287 151.905 938.3 137.2 954.95 120.143 C 981.786 92.652 988.991 84.271 981.09 89.737 M 1041 129.52 C 1039.52 130.321 1038.08 131.765 1037.79 132.73 C 1036.25 137.913 1034.17 148.519 1034.16 151.296 C 1034.13 156.2 1030.71 171.851 1029.37 173.191 C 1027.55 175.011 1026.4 173.215 1024.41 165.442 C 1022.29 157.153 1021.73 156.145 1018.53 154.929 C 1015.32 153.708 1010.16 155.832 1007.88 159.312 C 1006.94 160.743 1006.17 163.617 1006.17 165.699 C 1006.17 167.781 1005.66 171.284 1005.05 173.484 C 1004.44 175.684 1003.65 180.634 1003.31 184.484 C 1002.76 190.512 1002.41 191.484 1000.75 191.484 C 999.467 191.484 998.561 190.514 998.046 188.588 C 996.752 183.747 992.376 179.984 988.041 179.984 C 982.458 179.984 978.873 184.245 977.242 192.82 C 974.812 205.589 974.892 205.478 970.539 202.054 C 967.904 199.981 961.753 200.152 959.56 202.359 C 957.378 204.555 955.177 216.871 955.177 226.88 C 955.177 232.373 954.756 237.126 954.241 237.444 C 953.726 237.763 952.335 234.752 951.149 230.753 C 947.673 219.036 946.187 216.533 942.486 216.175 C 938.097 215.75 935.562 218.548 934.708 224.759 C 934.021 229.756 932.063 236.431 930.962 237.532 C 930.64 237.854 929.845 236.509 929.197 234.543 C 927.549 229.552 924.943 228.355 920.876 230.721 C 915.886 233.624 914.05 238.555 911.097 256.984 C 908.975 270.224 908.831 279.789 910.679 284.628 C 912.409 289.158 914.843 290.296 917.069 287.615 C 917.694 286.861 919.159 281.486 920.324 275.67 C 923.398 260.334 925.229 260.443 928.69 276.171 C 930.433 284.093 931.757 286.113 936.35 287.86 C 941.44 289.795 942.546 285.737 944.08 259.484 C 944.53 251.784 944.961 245.345 945.038 245.175 C 945.603 243.922 947.355 247.009 949.163 252.441 C 952.034 261.069 954.424 263.984 958.627 263.984 C 962.975 263.984 964.202 262.292 965.319 254.753 C 965.83 251.305 966.592 246.137 967.011 243.268 C 967.431 240.4 968.02 237.808 968.319 237.508 C 968.619 237.209 969.693 238.801 970.705 241.046 C 972.817 245.731 976.47 248.984 979.616 248.984 C 980.809 248.984 983.223 247.5 984.981 245.686 C 987.529 243.057 988.177 241.55 988.177 238.251 C 988.177 235.976 988.61 232.976 989.138 231.586 C 989.667 230.195 990.406 224.992 990.782 220.024 C 991.662 208.36 992.707 207.434 998.229 213.424 C 1002.93 218.522 1005.5 219.092 1009.52 215.93 C 1012.58 213.521 1016.18 203.028 1016.18 196.501 C 1016.18 190.157 1018.01 189.162 1023.78 192.384 C 1036.23 199.346 1042.92 192.088 1047.63 166.484 C 1048.54 161.534 1049.71 156.102 1050.23 154.413 C 1050.75 152.724 1051.18 149.927 1051.18 148.197 C 1051.18 146.467 1051.92 143.494 1052.83 141.59 C 1054.23 138.643 1054.29 137.665 1053.19 135.022 C 1051.74 131.523 1047.72 127.964 1045.29 128.024 C 1044.4 128.046 1042.47 128.719 1041 129.52 M 910.641 138.339 C 905.122 143.513 897.922 149.594 894.642 151.852 C 882.585 160.154 842.177 198.033 842.177 201.033 C 842.177 201.936 843.014 203.432 844.037 204.357 C 847.001 207.04 850.379 204.968 857.211 196.276 C 860.58 191.99 865.888 186.538 869.006 184.16 C 872.125 181.782 881.427 173.194 889.677 165.075 C 897.927 156.957 907.602 147.947 911.177 145.054 C 918.26 139.322 924.438 132.267 923.87 130.561 C 922.964 127.839 919.957 129.608 910.641 138.339 M 1073.52 206.795 C 1070.86 208.892 1065.34 212.942 1061.27 215.797 C 1039.89 230.772 996.854 273.658 961.254 315.462 C 956.876 320.603 955.584 322.77 956.349 323.691 C 957.049 324.534 957.952 324.64 959.119 324.015 C 960.072 323.505 968.912 315.226 978.764 305.618 C 988.616 296.009 998.573 286.648 1000.89 284.816 C 1003.21 282.983 1006.52 279.562 1008.24 277.212 C 1009.97 274.863 1012.41 272.388 1013.67 271.712 C 1014.93 271.037 1022.75 263.959 1031.05 255.984 C 1049.63 238.139 1058.6 230.019 1067.71 222.812 C 1077.84 214.792 1083.53 206.736 1080.9 204.111 C 1079.25 202.46 1078.82 202.616 1073.52 206.795 M 1083.45 224.793 C 1082.78 225.221 1073.34 234.102 1062.47 244.528 C 1051.6 254.954 1040.29 265.734 1037.32 268.484 C 1018.93 285.539 1005.14 301.023 991.015 320.484 C 986.624 326.534 982.313 332.039 981.434 332.718 C 977.043 336.113 974.237 344.984 977.555 344.984 C 981.705 344.984 987.35 340.42 1004.18 323.459 C 1014.35 313.203 1034.38 293.886 1048.68 280.532 C 1084.89 246.719 1092.18 238.367 1092.18 230.689 C 1092.18 225.539 1087.38 222.297 1083.45 224.793 M 1066.86 292.968 C 1064.28 294.609 1060.7 298.048 1058.92 300.611 C 1057.13 303.174 1053.96 307.343 1051.87 309.877 C 1046.82 315.99 1041.81 325.057 1039.25 332.702 C 1036.13 342.053 1036.3 357.327 1039.59 363.767 C 1043.38 371.193 1047.59 374.511 1056.42 377.056 C 1064.12 379.277 1064.19 379.279 1071.92 377.466 C 1079.03 375.798 1080.19 375.152 1085.85 369.735 C 1096.88 359.163 1102.76 344.115 1101.81 328.86 C 1100.45 306.791 1098.79 301.568 1090.78 294.189 C 1086.29 290.047 1086.11 289.984 1078.89 289.984 C 1072.48 289.984 1070.98 290.356 1066.86 292.968 M 1069.53 313.976 C 1065.98 315.409 1064.18 318.997 1064.18 324.63 C 1064.18 328.766 1064.71 330.46 1066.77 332.907 C 1068.99 335.549 1070.03 335.984 1074.11 335.984 C 1079.24 335.984 1080.68 334.961 1083.56 329.284 C 1085.7 325.056 1085.64 319.697 1083.43 317.76 C 1080.84 315.487 1075.53 312.975 1073.48 313.047 C 1072.49 313.082 1070.71 313.5 1069.53 313.976 M 1049.78 336.566 C 1049.01 338.583 1049.01 343.875 1049.77 347.72 C 1050.57 351.685 1055.43 353.989 1062.96 353.969 C 1072.21 353.945 1076.96 350.256 1069.7 348.746 C 1067.72 348.337 1064.75 347.299 1063.09 346.44 C 1059.86 344.77 1052.18 337.323 1052.18 335.863 C 1052.18 334.377 1050.43 334.89 1049.78 336.566" stroke="none" fill="#000000" fill-rule="evenodd"/>
</svg>